<?xml version="1.0" encoding="UTF-8" standalone="no"?>
<!DOCTYPE svg PUBLIC "-//W3C//DTD SVG 1.1//EN"
 "http://www.w3.org/Graphics/SVG/1.1/DTD/svg11.dtd">
<!-- Generated by graphviz version 14.1.5 (0)
 -->
<!-- Title: G Pages: 1 -->
<svg width="97pt" height="67pt"
 viewBox="0.00 0.00 97.00 67.00" xmlns="http://www.w3.org/2000/svg" xmlns:xlink="http://www.w3.org/1999/xlink">
<g id="graph0" class="graph" transform="scale(1 1) rotate(0) translate(21.6 45.35)">
<title>G</title>
<polygon fill="#111111" stroke="none" points="-21.6,21.6 -21.6,-45.35 75.6,-45.35 75.6,21.6 -21.6,21.6"/>
<!-- app.js -->
<g id="node1" class="node">
<title>app.js</title>
<path fill="none" stroke="#cfffac" d="M46.08,-23.75C46.08,-23.75 7.92,-23.75 7.92,-23.75 3.96,-23.75 0,-19.79 0,-15.83 0,-15.83 0,-7.92 0,-7.92 0,-3.96 3.96,0 7.92,0 7.92,0 46.08,0 46.08,0 50.04,0 54,-3.96 54,-7.92 54,-7.92 54,-15.83 54,-15.83 54,-19.79 50.04,-23.75 46.08,-23.75"/>
<text xml:space="preserve" text-anchor="middle" x="27" y="-6.45" font-family="Arial" font-size="14.00" fill="#cfffac">app.js</text>
</g>
</g>
</svg>
